<?xml version="1.0" encoding="UTF-8" standalone="no"?>
<svg
   xmlns:dc="http://purl.org/dc/elements/1.1/"
   xmlns:cc="http://creativecommons.org/ns#"
   xmlns:rdf="http://www.w3.org/1999/02/22-rdf-syntax-ns#"
   xmlns:svg="http://www.w3.org/2000/svg"
   xmlns="http://www.w3.org/2000/svg"
   id="svg5869"
   version="1.1"
   viewBox="0 0 16.326328 16.324413"
   height="16.324413mm"
   width="16.326328mm">
  <defs
     id="defs5863" />
  <metadata
     id="metadata5866">
    <rdf:RDF>
      <cc:Work
         rdf:about="">
        <dc:format>image/svg+xml</dc:format>
        <dc:type
           rdf:resource="http://purl.org/dc/dcmitype/StillImage" />
        <dc:title></dc:title>
      </cc:Work>
    </rdf:RDF>
  </metadata>
  <g
     transform="translate(-74.983088,-130.71468)"
     id="layer1">
    <path
       style="opacity:0.63399999;fill:#f7f6f5;stroke-width:0.04252039"
       d="m 82.295475,147.01726 c -0.0584,-0.01 -0.24981,-0.036 -0.425209,-0.061 -3.215681,-0.4618 -6.049061,-3.1358 -6.717491,-6.34 -0.217,-1.04011 -0.22671,-2.3772 -0.0243,-3.34131 0.35519,-1.6915 1.13685,-3.0947 2.41039,-4.327 1.06704,-1.0324 2.16898,-1.6575 3.52349,-1.9986 1.1905,-0.2998 2.73815,-0.3133 3.99357,-0.035 2.77947,0.6165 5.13646,2.82941 5.92688,5.5647 0.237611,0.82231 0.3261,1.48101 0.32661,2.43151 0.001,2.0481 -0.6507,3.8386 -1.92449,5.2867 -1.33335,1.5159 -3.20436,2.5238 -5.17026,2.7856 -0.402859,0.054 -1.63807,0.076 -1.91922,0.035 z m 1.96326,-1.5862 c 2.37414,-0.4058 4.44581,-2.1148 5.197,-4.2872 0.27078,-0.7831 0.34404,-1.2682 0.34177,-2.2633 -0.002,-0.9605 -0.0647,-1.3783 -0.32092,-2.1459 -0.64372,-1.92811 -2.25019,-3.54711 -4.15158,-4.18391 -0.776,-0.2599 -1.17285,-0.3196 -2.13661,-0.3218 -0.74232,0 -0.9425,0.013 -1.34907,0.094 -1.16106,0.2344 -2.09805,0.6935 -2.98697,1.4636 -1.13809,0.98601 -1.94034,2.34461 -2.26338,3.83311 -0.12515,0.57659 -0.13552,1.8459 -0.0198,2.4234 0.5585,2.7872 2.75812,4.9279 5.55622,5.4071 0.509111,0.087 1.566291,0.078 2.133351,-0.02 z m -3.96172,-4.0656 c -0.85011,-0.1832 -1.50168,-0.8184 -1.72935,-1.68581 -0.0859,-0.32739 -0.0957,-1.13549 -0.0181,-1.5006 0.190091,-0.89449 0.888931,-1.5999 1.768681,-1.78549 0.882639,-0.1861 1.77717,0.039 2.33597,0.5881 0.22967,0.22569 0.44294,0.5231 0.39909,0.5567 -0.008,0.01 -0.254811,0.1375 -0.54942,0.2926 l -0.535661,0.28209 -0.13197,-0.20359 c -0.17402,-0.2686 -0.49542,-0.45001 -0.79517,-0.4489 -0.43874,0 -0.74554,0.1952 -0.91945,0.5799 -0.0909,0.2012 -0.10104,0.2832 -0.10104,0.8189 0,0.53469 0.0102,0.6178 0.10049,0.8175 0.21756,0.48119 0.6635,0.7131 1.16931,0.60809 0.3178,-0.066 0.54581,-0.2454 0.71183,-0.56019 l 0.0593,-0.11251 0.521,0.26171 0.52099,0.2618 -0.14375,0.2134 c -0.18586,0.276 -0.5889,0.6469 -0.8654,0.7966 -0.48452,0.2621 -1.1968,0.3492 -1.79743,0.2197 z m 4.71976,0 c -0.86442,-0.1864 -1.52063,-0.8338 -1.72601,-1.7031 -0.0909,-0.38471 -0.0898,-1.2198 0.002,-1.5684 0.229111,-0.86971 0.899151,-1.5226 1.745241,-1.7005 0.80795,-0.17001 1.70425,0.024 2.2359,0.4846 0.18433,0.1595 0.54124,0.6252 0.50311,0.6563 -0.01,0.01 -0.2598,0.1421 -0.5557,0.29779 l -0.53799,0.2834 -0.10629,-0.18089 c -0.26117,-0.4445 -0.83735,-0.6081 -1.30517,-0.3705 -0.39825,0.20219 -0.56726,0.5885 -0.56653,1.2952 6.88e-4,0.9556 0.36551,1.4436 1.0764,1.44079 0.40627,0 0.69603,-0.1756 0.92145,-0.55329 l 0.0793,-0.13291 0.52331,0.26241 0.52332,0.2623 -0.18656,0.2534 c -0.61229,0.8317 -1.59429,1.1957 -2.62584,0.9734 z"
       id="path9297" />
  </g>
</svg>
